<svg xmlns="http://www.w3.org/2000/svg" width="52.071" height="39.377" viewBox="0 0 52.071 39.377"><path d="M21.687,39.377c-1.057,0-2.161-.028-3.283-.085s-2.307-.141-3.513-.252c-1.189-.109-2.452-.249-3.753-.414-1.24-.157-2.586-.349-4-.57.618-.3,1.211-.61,1.762-.938a17.49,17.49,0,0,0,1.5-1,13.974,13.974,0,0,0,1.252-1.048,11.382,11.382,0,0,0,1.017-1.094,9.676,9.676,0,0,0,.8-1.134,8.883,8.883,0,0,0,.588-1.17,8.608,8.608,0,0,0,.6-2.422,9.35,9.35,0,0,0,.047-.945c0-.307-.014-.628-.044-.953s-.074-.644-.13-.959-.127-.636-.211-.961-.179-.645-.285-.962-.222-.636-.353-.961a20.593,20.593,0,0,0-.886-1.9,35.61,35.61,0,0,0-5.086-7.045c-.865-.96-1.808-1.935-2.8-2.9C4.111,10.9,3.279,10.137,2.432,9.4,1.842,8.885,1.25,8.388.671,7.922.319,7.638.086,7.46,0,7.4c1.2.236,2.4.507,3.555.8,1.07.273,2.131.574,3.154.9a51.088,51.088,0,0,1,5.109,1.9c.672.293,1.333.6,1.964.919.553.277,1.083.561,1.575.842.418.239.819.483,1.191.725.307.2.579.391.81.566a7.706,7.706,0,0,1-.337-1.313c-.1-.522-.188-1.153-.27-1.875-.147-1.3-.264-2.873-.338-4.562-.035-.779-.059-1.536-.071-2.251-.013-.693-.016-1.347-.007-1.941A7.423,7.423,0,0,1,16.514.024.047.047,0,0,1,16.55,0h.008c.675.538,1.347,1.105,2,1.685.614.549,1.225,1.125,1.814,1.712.567.565,1.118,1.144,1.639,1.719.5.55.993,1.125,1.472,1.709a45.212,45.212,0,0,1,4.362,6.354c.495.873.955,1.757,1.369,2.627.337.71.642,1.4.905,2.062.237.593.4,1.06.5,1.346.107.316.154.481.154.482v-.006c.005-.03.021-.121.056-.26a7.256,7.256,0,0,1,.212-.7,8.057,8.057,0,0,1,.433-.986,7.86,7.86,0,0,1,.717-1.131A7.365,7.365,0,0,1,34.732,14.5a8.037,8.037,0,0,1,.913-.394,8.985,8.985,0,0,1,1.04-.3,10.431,10.431,0,0,1,1.175-.2,12.241,12.241,0,0,1,1.318-.069,9.547,9.547,0,0,1,1.314.089,7.991,7.991,0,0,1,1.165.25,7.3,7.3,0,0,1,1.023.39,6.939,6.939,0,0,1,.891.5A7.666,7.666,0,0,1,46,17.485a10.282,10.282,0,0,1,.654,1.45,11.452,11.452,0,0,1,.378,1.264c.09.378.145.7.175.895.024.167.036.279.04.322l0,.018,4.829,1.733L46.8,24.938c-.3.635-.608,1.253-.923,1.834s-.65,1.158-.99,1.7-.7,1.079-1.061,1.566-.743.978-1.136,1.437-.8.894-1.216,1.308-.856.814-1.3,1.183c-.25.209-.512.416-.776.616.483-2.1-.4-3.748-1.51-5.838l-.005-.01-.214-.4c-.334-.63-.658-1.149-.945-1.607a7.77,7.77,0,0,1-1.5-4.237A.326.326,0,0,0,35.4,22.2V21.1a.768.768,0,1,0-.654-.014V22.2a.326.326,0,0,0,.2.3,7.236,7.236,0,0,0,1.377,4.114c.324.527.728,1.183,1.244,2.111,2.346,4.028,1.627,5.775,1.351,6.214l-.122.086c-.474.331-.972.646-1.479.938s-1.04.569-1.574.819-1.1.486-1.674.7-1.174.412-1.778.588-1.241.336-1.887.476-1.317.263-2,.366-1.395.191-2.116.259-1.488.12-2.237.153S22.511,39.377,21.687,39.377ZM41.248,17.925A1.974,1.974,0,1,0,43.225,19.9,1.979,1.979,0,0,0,41.248,17.925Zm-.014,3.181a1.133,1.133,0,0,1-.8-.333,1.133,1.133,0,0,1,0-1.606,1.138,1.138,0,0,1,1.034-.31.725.725,0,1,0,.886.884,1.149,1.149,0,0,1,.023.229,1.141,1.141,0,0,1-.7,1.048A1.146,1.146,0,0,1,41.234,21.107Z" transform="translate(-0.003 0)" fill="#fff"/></svg>