<svg xmlns="http://www.w3.org/2000/svg" width="54.267" height="40" viewBox="0 0 54.267 40"><g transform="translate(-577.733 -40)"><path d="M1.146,21.631l19.17,15.975a3.2,3.2,0,0,0,5.242-2.456V3.2A3.2,3.2,0,0,0,20.316.744L1.146,16.719A3.206,3.206,0,0,0,1.146,21.631Zm25.56,0,19.17,15.975a3.2,3.2,0,0,0,5.242-2.456V3.2A3.2,3.2,0,0,0,45.876.744L26.706,16.719A3.206,3.206,0,0,0,26.706,21.631Z" transform="translate(628.851 79.651) rotate(180)" fill="#222"/><rect width="6" height="40" transform="translate(626 40)" fill="#222"/></g></svg>