<svg xmlns="http://www.w3.org/2000/svg" xmlns:xlink="http://www.w3.org/1999/xlink" width="274" height="122" viewBox="0 0 274 122"><defs><clipPath id="a"><rect width="274" height="122" fill="none"/></clipPath></defs><g clip-path="url(#a)"><path d="M552.778,676.909a6.432,6.432,0,0,1-3.672,2.542,16.042,16.042,0,0,1-5.254.96,6.663,6.663,0,0,1-4.35-1.186q-1.414-1.186-.056-3.446l-.113.226a40.365,40.365,0,0,0,2.2-5.932,20.591,20.591,0,0,0,.847-5.593A8.03,8.03,0,0,0,540.8,659.4q-1.583-2.032-5.2-1.81-3.165.228-7.57,3.559a55.313,55.313,0,0,0-9.1,9.039,100.7,100.7,0,0,0-9.1,13.277,110.057,110.057,0,0,0-7.683,16.158,76.882,76.882,0,0,0-2.6,10.169,55.888,55.888,0,0,0-1.017,10.282,19.406,19.406,0,0,0,2.6,10.339q2.6,4.237,8.135,4.35a24.677,24.677,0,0,0,9.265-2.768,41.277,41.277,0,0,0,8.022-5.48,51.44,51.44,0,0,0,6.328-6.554,46.746,46.746,0,0,0,4.181-5.989,3.932,3.932,0,0,1,2.316-1.582,4.333,4.333,0,0,1,2.6.113,2.957,2.957,0,0,1,1.695,1.525,2.755,2.755,0,0,1-.282,2.542q-1.13,1.923-3.051,4.633a61.95,61.95,0,0,1-4.576,5.65,72.582,72.582,0,0,1-5.932,5.819,59.185,59.185,0,0,1-6.949,5.254,38.607,38.607,0,0,1-7.683,3.842,23.684,23.684,0,0,1-8.192,1.469q-10.736.111-16.327-6.714t-5.593-18.34a55.2,55.2,0,0,1,.847-9.253,70.2,70.2,0,0,1,2.655-10.385,106.723,106.723,0,0,1,9.887-21.442,74.74,74.74,0,0,1,12.26-15.4,47.979,47.979,0,0,1,13.729-9.254,35.509,35.509,0,0,1,14.18-3.1A18.749,18.749,0,0,1,546,650.677a15.421,15.421,0,0,1,5.311,3.623,14.982,14.982,0,0,1,3.22,5.328,19.224,19.224,0,0,1,1.073,6.433,23.218,23.218,0,0,1-.678,5.424A20.907,20.907,0,0,1,552.778,676.909Z" transform="translate(-485.096 -649.339)" fill="#fff"/><path d="M644.885,758.829a6.407,6.407,0,0,1,4.689,2.2,11.688,11.688,0,0,1,2.316,4.689,9.426,9.426,0,0,1,4.577.848q1.975.961,1.412,2.655-.228.567-.565,1.525t-.565,1.525q-1.47,3.617-2.769,6.836a53.773,53.773,0,0,0-2.09,6.158q-1.016,3.39-1.638,6.158a8.622,8.622,0,0,0-.4,3.333,7.789,7.789,0,0,0,2.26-1.469,51.681,51.681,0,0,0,4.068-3.729,22.444,22.444,0,0,0,3.107-3.616,38.764,38.764,0,0,0,2.429-3.955,4.888,4.888,0,0,1,2.712-1.864,4.582,4.582,0,0,1,2.769.056,2.561,2.561,0,0,1,1.581,1.751,3.845,3.845,0,0,1-.734,3.107,33.941,33.941,0,0,0-2.26,3.051q-.906,1.245-1.864,2.655a23.976,23.976,0,0,1-1.865,2.429,61.633,61.633,0,0,1-7.8,7.231q-3.843,2.937-6.78,3.051-3.843.111-5.819-1.582a8.94,8.94,0,0,1-2.768-4.407,19.475,19.475,0,0,1-4.859,4.237,12.208,12.208,0,0,1-6.1,1.864q-5.652.225-7.8-3.164a15.547,15.547,0,0,1-2.147-8.474,34.95,34.95,0,0,1,.9-7.8,37.892,37.892,0,0,1,4.124-9.717,40.448,40.448,0,0,1,6.328-8.135,30.053,30.053,0,0,1,7.627-5.537A16.526,16.526,0,0,1,644.885,758.829Zm-14.8,35.932q2.937-.111,5.65-3.785a42.541,42.541,0,0,0,4.859-8.757v.113q.678-2.034,1.525-4.294t1.525-4.407a10.74,10.74,0,0,0,.9-4.181,2.416,2.416,0,0,0-.282-1.186,1.464,1.464,0,0,0-1.186-.621,5.222,5.222,0,0,0-3.446,1.3,18.436,18.436,0,0,0-3.616,3.785,32.72,32.72,0,0,0-3.22,5.48,28.331,28.331,0,0,0-2.147,6.384q-.114.339-.339,1.243t-.509,2.034q-.283,1.13-.508,2.373a12.154,12.154,0,0,0-.226,2.147,5.4,5.4,0,0,0,.226,1.695Q629.517,794.761,630.082,794.761Z" transform="translate(-567.938 -717.587)" fill="#fff"/><path d="M755.971,792.522q0-2.259.169-4.633a45.163,45.163,0,0,1,.621-4.859q-2.826,4.407-5.48,8.87t-5.255,8.983a4.157,4.157,0,0,1-.056.678,3.3,3.3,0,0,0-.056.452,8.039,8.039,0,0,1-3.164.339,16.643,16.643,0,0,1-3.672-.621,8.9,8.9,0,0,1-2.938-1.412,2.107,2.107,0,0,1-.96-2.147l1.695-9.039a1.274,1.274,0,0,0-.678-1.469,7.967,7.967,0,0,0-1.752-.508,7.919,7.919,0,0,1-1.751-.508q-.792-.339-.565-1.469a2.2,2.2,0,0,1-.169-1.808,15.345,15.345,0,0,1,.621-1.977q.34-.847.509-1.186t-.509.678a3.5,3.5,0,0,1,.622-1.017,3.514,3.514,0,0,0,.621-1.017q.79-1.356,1.864-3.22t2.2-3.785q1.128-1.92,2.2-3.729t1.752-3.164a5.449,5.449,0,0,1,2.542-1.356,25.637,25.637,0,0,1,3.9-.847,22.094,22.094,0,0,1,3.729-.226q1.695.058,2.033.508a76.913,76.913,0,0,0-2.147,8.248q-.905,4.407-1.808,9.152,2.937-5.424,5.932-10.96t5.593-10.282l2.146-1.13-.113.113a9.584,9.584,0,0,1,1.864-.791q1.073-.339,2.147-.621t2.033-.452a9.262,9.262,0,0,1,1.526-.169,4.851,4.851,0,0,1,2.711.565q.79.567.226,2.147-.228,1.356-.622,2.825t-.621,2.825q-.678,2.94-1.582,6.61t-1.639,7.4q-.736,3.729-1.243,7.232a42.726,42.726,0,0,0-.508,5.989q0,2.94.339,3.39a6.443,6.443,0,0,0,2.881-1.695,39.968,39.968,0,0,0,3.842-3.785q1.976-2.2,3.785-4.633t2.825-4.124l-.113.113a1.616,1.616,0,0,1,1.582-.847,6.026,6.026,0,0,1,2.429.4,5.181,5.181,0,0,1,1.977,1.3,1.447,1.447,0,0,1,.339,1.751,53.36,53.36,0,0,1-3.955,6.215,62.185,62.185,0,0,1-5.762,6.892,42.116,42.116,0,0,1-6.667,5.65,12.273,12.273,0,0,1-6.892,2.373,7.459,7.459,0,0,1-4.012-.791,7.177,7.177,0,0,1-2.655-2.542,11.651,11.651,0,0,1-1.469-3.9A25.365,25.365,0,0,1,755.971,792.522Z" transform="translate(-638.913 -715.914)" fill="#fff"/><path d="M886.679,758.829a6.407,6.407,0,0,1,4.689,2.2,11.687,11.687,0,0,1,2.316,4.689,9.426,9.426,0,0,1,4.577.848q1.975.961,1.412,2.655-.228.567-.565,1.525t-.565,1.525q-1.47,3.617-2.769,6.836a53.809,53.809,0,0,0-2.09,6.158q-1.016,3.39-1.638,6.158a8.62,8.62,0,0,0-.4,3.333,7.791,7.791,0,0,0,2.26-1.469,51.671,51.671,0,0,0,4.068-3.729,22.434,22.434,0,0,0,3.107-3.616,38.743,38.743,0,0,0,2.429-3.955,4.888,4.888,0,0,1,2.712-1.864,4.582,4.582,0,0,1,2.769.056,2.561,2.561,0,0,1,1.581,1.751,3.844,3.844,0,0,1-.734,3.107,33.93,33.93,0,0,0-2.26,3.051q-.906,1.245-1.864,2.655a23.976,23.976,0,0,1-1.865,2.429,61.629,61.629,0,0,1-7.8,7.231q-3.843,2.937-6.78,3.051-3.843.111-5.819-1.582a8.939,8.939,0,0,1-2.768-4.407,19.479,19.479,0,0,1-4.859,4.237,12.209,12.209,0,0,1-6.1,1.864q-5.652.225-7.8-3.164a15.547,15.547,0,0,1-2.147-8.474,34.95,34.95,0,0,1,.9-7.8,37.89,37.89,0,0,1,4.124-9.717,40.447,40.447,0,0,1,6.328-8.135,30.053,30.053,0,0,1,7.627-5.537A16.526,16.526,0,0,1,886.679,758.829Zm-14.8,35.932q2.937-.111,5.65-3.785a42.544,42.544,0,0,0,4.859-8.757v.113q.679-2.034,1.525-4.294t1.525-4.407a10.737,10.737,0,0,0,.9-4.181,2.416,2.416,0,0,0-.282-1.186,1.464,1.464,0,0,0-1.186-.621,5.222,5.222,0,0,0-3.446,1.3,18.438,18.438,0,0,0-3.616,3.785,32.724,32.724,0,0,0-3.22,5.48,28.328,28.328,0,0,0-2.147,6.384q-.114.339-.339,1.243t-.509,2.034q-.283,1.13-.508,2.373a12.154,12.154,0,0,0-.226,2.147,5.4,5.4,0,0,0,.226,1.695Q871.312,794.761,871.877,794.761Z" transform="translate(-718.663 -717.587)" fill="#fff"/><path d="M998.024,800.331a18.818,18.818,0,0,1-5.876-.791,10,10,0,0,1-3.842-2.2,7.891,7.891,0,0,1-2.09-3.39,14.035,14.035,0,0,1-.621-4.237,21.8,21.8,0,0,1,.565-4.859,35.618,35.618,0,0,1,1.525-4.972q.958-2.484,2.09-4.746t2.26-4.181a15.308,15.308,0,0,1-3.729-1.469l-.226.339q-.678,1.131-1.582,2.655t-2.26,4.124l-3.728,5.65a4.423,4.423,0,0,1-2.091,1.469,4.572,4.572,0,0,1-2.429.226,2.42,2.42,0,0,1-1.695-1.186q-.567-.959.226-2.994a5.581,5.581,0,0,1,.622-1.13q.394-.564.734-1.13.564-1.017,1.864-3.164a49.775,49.775,0,0,0,2.373-4.407,31.857,31.857,0,0,0,1.639-4.068q.564-1.806-.339-2.147-1.695-3.84-.452-6.1a6.543,6.543,0,0,1,3.5-3.107,8.783,8.783,0,0,1,4.858-.339,5.241,5.241,0,0,1,3.616,2.09,6.487,6.487,0,0,0,1.525,2.034,24.968,24.968,0,0,0,2.2,1.864,16.016,16.016,0,0,0,2.09,1.356,10.726,10.726,0,0,0,1.3.621,13.2,13.2,0,0,1,4.124,1.638,4.918,4.918,0,0,1,1.865,2.034,3.428,3.428,0,0,1,.169,2.2,6.878,6.878,0,0,1-1.074,2.26l.113-.113q-1.355,2.373-2.655,4.972t-2.316,5.141a43.218,43.218,0,0,0-1.639,4.859,16.123,16.123,0,0,0-.621,4.124q0,2.939,2.6,2.825a6.41,6.41,0,0,0,3.334-1.073,19.218,19.218,0,0,0,3.5-2.825,34.79,34.79,0,0,0,3.446-4.068q1.695-2.315,3.277-4.8v.113a1.724,1.724,0,0,1,1.639-.791,7.49,7.49,0,0,1,2.373.4,4.113,4.113,0,0,1,1.864,1.186,1.281,1.281,0,0,1,.226,1.582q-1.923,3.279-4.294,6.554a41.512,41.512,0,0,1-5.2,5.932,28.2,28.2,0,0,1-5.988,4.35A14.146,14.146,0,0,1,998.024,800.331ZM980.4,782.591l-.113.113.226-.452a.23.23,0,0,1-.057.169A.229.229,0,0,0,980.4,782.591Z" transform="translate(-789.896 -714.57)" fill="#fff"/><path d="M1104.033,771.452q.339-.9,2.317-1.638a17.029,17.029,0,0,1,4.237-.96,19.454,19.454,0,0,1,4.18,0q1.92.228,1.921,1.13-1.7,9.606-4.576,19.83a161.864,161.864,0,0,1-7.4,20.621q3.954-4.971,7.966-10.4T1120.3,789.3a2.41,2.41,0,0,1,1.864-.9,6.848,6.848,0,0,1,2.485.226,4.789,4.789,0,0,1,1.977,1.073,1.277,1.277,0,0,1,.339,1.638q-2.826,4.746-6.949,10.4t-8.644,11.412q-4.52,5.763-8.926,11.13t-7.8,9.322l-9.6,8.813a4.641,4.641,0,0,1-2.2,1.3,4.425,4.425,0,0,1-2.09.057,1.972,1.972,0,0,1-1.3-.9,1.459,1.459,0,0,1,.17-1.582q5.873-10.4,9.6-18.87t6.327-16.158a15.373,15.373,0,0,1-9.039,3.39,15.543,15.543,0,0,1-5.2-.734,8.072,8.072,0,0,1-3.277-2.09,7.658,7.658,0,0,1-1.751-3.22,15.655,15.655,0,0,1-.509-4.124,26.312,26.312,0,0,1,.452-4.8q.45-2.428,1.017-4.8a31.8,31.8,0,0,1,1.3-4.124q.847-2.2,1.695-4.237t1.695-3.785q.847-1.751,1.412-2.881a4.035,4.035,0,0,1,2.768-1.582,14.869,14.869,0,0,1,4.294-.282,11.947,11.947,0,0,1,3.785.847q1.581.678,1.243,1.808l-1.243,2.825q-1.017,2.373-2.429,5.706t-2.655,7.288q-.678,2.148-1.13,4.011a14.662,14.662,0,0,0-.452,3.446q0,2.034,1.469,2.034a5.138,5.138,0,0,0,3.051-1.186,25.118,25.118,0,0,0,3.842-3.9,20.691,20.691,0,0,0,2.881-4.011,25.844,25.844,0,0,0,2.091-4.8,40.344,40.344,0,0,0,1.186-5.424q.395-2.712.96-5.424.225-1.242.452-2.316t.452-2.316Z" transform="translate(-853.308 -723.769)" fill="#fff"/></g></svg>