<svg xmlns="http://www.w3.org/2000/svg" width="56.776" height="55.78" viewBox="0 0 56.776 55.78">
    <defs>
        <style>
            .cls-1{fill:#fff}
        </style>
    </defs>
    <path id="search" d="M55.667 49.5l-11-12c-.5-.5-1.292 0-2 0h-1c3.055-3.907 4-8.654 4-14a23 23 0 1 0-23 23 25.472 25.472 0 0 0 15-5v1c0 .708-.5 1.5 0 2l11 11a2.953 2.953 0 0 0 4 0l3-3a1.837 1.837 0 0 0 0-3zm-33-12a13.875 13.875 0 0 1-14-14c0-7.826 6.163-15 14-15s15 7.163 15 15-7.167 14-15 14z" class="cls-1" transform="translate(.333 -.5)"/>
</svg>
