<svg xmlns="http://www.w3.org/2000/svg" xmlns:xlink="http://www.w3.org/1999/xlink" width="1080.015" height="1910.984" viewBox="0 0 1080.015 1910.984"><defs><clipPath id="a"><rect width="1080.015" height="1910.984" fill="none"/></clipPath></defs><g transform="translate(0 0)" clip-path="url(#a)"><path d="M8525-4212.121s10.993-125.633,156.831-125.633S8806.705-4120.4,9065-4120.4s242.354-217.353,393.47-217.353S9605-4212.121,9605-4212.121V-2948H8525Z" transform="translate(-8525 4858.984)" fill="#572aa1"/><path d="M119.479,73.492q-2.314-.771-4.628-1.457c.257-1.057.486-2.114.714-3.171,3.514-17.028,1.2-30.713-6.6-35.227-7.514-4.314-19.77.171-32.17,10.971-1.229,1.057-2.428,2.171-3.571,3.286-.771-.743-1.571-1.486-2.371-2.2-13-11.542-26.027-16.4-33.827-11.857-7.485,4.343-9.714,17.228-6.571,33.341.314,1.6.657,3.171,1.057,4.771-1.828.514-3.628,1.086-5.314,1.686C10.942,78.921,0,87.263,0,95.891c0,8.914,11.657,17.856,27.513,23.284,1.286.429,2.571.857,3.886,1.228-.429,1.714-.8,3.4-1.143,5.143-3,15.856-.657,28.427,6.828,32.741,7.714,4.457,20.685-.114,33.312-11.171,1-.886,2-1.8,3-2.771,1.257,1.229,2.571,2.4,3.886,3.543,12.228,10.514,24.313,14.771,31.77,10.457,7.714-4.457,10.228-17.97,6.971-34.427q-.386-1.886-.857-3.857c.914-.257,1.8-.543,2.686-.829,16.485-5.457,28.427-14.285,28.427-23.342C146.278,87.235,135.021,78.835,119.479,73.492ZM80.824,49.237c10.628-9.257,20.542-12.885,25.056-10.285,4.828,2.771,6.685,13.971,3.657,28.684-.2.971-.4,1.914-.657,2.857a146.257,146.257,0,0,0-19.228-3.028A144.347,144.347,0,0,0,77.482,52.294C78.6,51.236,79.681,50.237,80.824,49.237ZM47.769,110.719c1.457,2.486,2.943,4.971,4.514,7.4a129.364,129.364,0,0,1-13.256-2.143,133.462,133.462,0,0,1,4.657-12.714C45,105.776,46.34,108.262,47.769,110.719Zm-8.657-34.37c4.114-.914,8.485-1.657,13.028-2.228-1.514,2.371-3,4.8-4.4,7.257-1.4,2.428-2.771,4.914-4.057,7.428C41.883,84.549,40.369,80.378,39.112,76.349ZM46.94,96.034c1.886-3.943,3.943-7.8,6.114-11.6s4.514-7.485,6.971-11.114c4.285-.314,8.657-.486,13.114-.486s8.857.171,13.114.486q3.643,5.4,6.942,11.057t6.2,11.542q-2.871,5.914-6.171,11.657c-2.171,3.8-4.485,7.485-6.914,11.142-4.257.314-8.685.457-13.171.457s-8.828-.143-13.028-.4q-3.728-5.443-7.028-11.142c-2.2-3.8-4.228-7.657-6.143-11.6Zm51.6,14.628c1.457-2.514,2.828-5.057,4.171-7.628a132.624,132.624,0,0,1,4.828,12.656,125.49,125.49,0,0,1-13.428,2.286C95.652,115.576,97.109,113.119,98.538,110.662Zm4.114-21.856c-1.343-2.514-2.714-5.028-4.143-7.485q-2.1-3.643-4.371-7.2a131.473,131.473,0,0,1,13.114,2.286A126.434,126.434,0,0,1,102.652,88.806ZM73.2,56.665a125.455,125.455,0,0,1,8.457,10.228c-5.657-.257-11.342-.257-17,0C67.454,63.207,70.339,59.779,73.2,56.665ZM40.055,39.151c4.8-2.8,15.456,1.2,26.684,11.142.714.629,1.428,1.314,2.171,2A145.148,145.148,0,0,0,56.654,67.464a150.6,150.6,0,0,0-19.2,2.971c-.371-1.457-.686-2.943-1-4.428-2.686-13.828-.914-24.256,3.6-26.856Zm-7,75.31c-1.2-.343-2.371-.714-3.543-1.114-6.085-1.914-13-4.943-18-8.914a12.82,12.82,0,0,1-5.371-8.542c0-5.228,9.028-11.914,22.056-16.456,1.628-.571,3.286-1.086,4.943-1.571a151.92,151.92,0,0,0,7,18.17A156.17,156.17,0,0,0,33.055,114.462Zm33.313,28a52.291,52.291,0,0,1-16.113,10.085,12.645,12.645,0,0,1-10.085.371c-4.543-2.628-6.428-12.714-3.857-26.284.314-1.6.657-3.2,1.057-4.771a142.926,142.926,0,0,0,19.4,2.8,150.771,150.771,0,0,0,12.342,15.256c-.914.886-1.828,1.743-2.743,2.543Zm7-6.942c-2.914-3.143-5.828-6.628-8.657-10.371,2.743.114,5.571.171,8.428.171,2.943,0,5.828-.057,8.685-.2A123.209,123.209,0,0,1,73.368,135.518Zm37.341,8.571a12.7,12.7,0,0,1-4.714,8.942c-4.543,2.628-14.228-.8-24.684-9.771-1.2-1.028-2.4-2.143-3.628-3.286a141.328,141.328,0,0,0,12.057-15.313,140.839,140.839,0,0,0,19.485-3c.286,1.171.543,2.343.771,3.486a52.081,52.081,0,0,1,.714,18.942Zm5.2-30.713c-.8.257-1.6.514-2.428.743a145.135,145.135,0,0,0-7.285-18.228,144.408,144.408,0,0,0,7-17.97c1.486.429,2.914.886,4.285,1.343,13.314,4.571,22.656,11.371,22.656,16.571C140.135,101.434,130.164,108.662,115.908,113.376Zm-42.769-4.285A13.085,13.085,0,1,0,60.054,96.005a13.083,13.083,0,0,0,13.085,13.085Z" transform="translate(466.861 -32.012)" fill="#572aa1"/><path d="M155.12,372.1c0,1.87-2.151,3.366-4.862,3.366-3.086.281-5.236-1.216-5.236-3.366,0-1.87,2.151-3.366,4.862-3.366C152.689,368.45,155.12,369.946,155.12,372.1Zm-29.079-4.208c-.655,1.87,1.216,4.021,4.021,4.582,2.431.935,5.236,0,5.8-1.87s-1.216-4.021-4.021-4.862c-2.431-.655-5.143.281-5.8,2.151Zm41.328-1.59c-2.712.655-4.582,2.431-4.3,4.582.281,1.87,2.712,3.086,5.517,2.431,2.712-.655,4.582-2.431,4.3-4.3C172.6,367.234,170.08,366.019,167.368,366.3ZM228.893,8C99.206,8,0,106.458,0,236.145,0,339.838,65.264,428.572,158.486,459.8c11.968,2.15,16.176-5.236,16.176-11.314,0-5.8-.281-37.775-.281-57.41,0,0-65.451,14.025-79.2-27.864,0,0-10.659-27.209-25.994-34.222,0,0-21.412-14.68,1.5-14.4,0,0,23.282,1.87,36.092,24.124,20.477,36.092,54.792,25.713,68.163,19.542,2.151-14.96,8.228-25.339,14.96-31.51-52.268-5.8-105-13.371-105-103.32,0-25.713,7.106-38.616,22.066-55.073-2.431-6.078-10.379-31.136,2.431-63.488,19.542-6.078,64.516,25.246,64.516,25.246a220.89,220.89,0,0,1,117.438,0s44.974-31.417,64.516-25.246c12.81,32.445,4.862,57.41,2.431,63.488,14.96,16.55,24.123,29.453,24.123,55.073,0,90.229-55.073,97.429-107.34,103.32,8.6,7.387,15.9,21.412,15.9,43.385,0,31.51-.281,70.5-.281,78.168,0,6.078,4.3,13.464,16.176,11.314,93.5-31.043,156.9-119.776,156.9-223.47C463.77,106.458,358.58,8,228.893,8ZM90.884,330.488c-1.216.935-.935,3.086.655,4.862,1.5,1.5,3.647,2.151,4.862.935,1.216-.935.935-3.086-.655-4.862C94.25,329.927,92.1,329.273,90.884,330.488Zm-10.1-7.574c-.655,1.216.281,2.712,2.151,3.647,1.5.935,3.366.655,4.021-.655.655-1.216-.281-2.712-2.151-3.647C82.936,321.7,81.44,321.979,80.786,322.914ZM111.08,356.2c-1.5,1.216-.935,4.021,1.216,5.8,2.151,2.151,4.862,2.431,6.078.935,1.216-1.215.655-4.021-1.216-5.8C115.1,354.986,112.3,354.705,111.08,356.2Zm-10.659-13.745c-1.5.935-1.5,3.366,0,5.517s4.021,3.086,5.236,2.151c1.5-1.216,1.5-3.647,0-5.8-1.309-2.151-3.74-3.086-5.236-1.87Z" transform="translate(308.374 197.77)" fill="#fff"/><path d="M69.193,78.772a32.459,32.459,0,0,1,5.932-2.966s-9.612,1.422-19.279,2.225c-11.827.978-24.765.853-31.143,0-15.091-2.006,8.157-7.415,8.157-7.415s-8.847-.177-20.021,5.191C-.344,82.176,45.465,85.017,69.193,78.772Zm-21.5-8.157c-4.771-10.709-20.866-19.881,0-36.334C73.728,13.766,60.295.172,60.295.172c5.4,21.193-18.622,27.615-27.436,40.783C26.858,49.959,35.511,59.63,47.689,70.615Zm28.919-44.49c.025,0-44,11.415-22.987,35.592,6.2,7.123-1.483,13.347-1.483,13.347s15.388-8.38,8.157-18.538C53.54,47.046,48.586,42.352,76.608,26.125ZM75.125,94.343c-.126.3-.742.716-.742.742C106.6,86.633,94.966,65.2,79.574,70.615A5.768,5.768,0,0,0,77.349,72.1s1.058-.34,2.966-.742C88.1,69.726,99.255,81.828,75.125,94.343Zm11.123,15.572s3.926,2.858-3.708,5.191c-14.538,4.389-59.912,5.543-72.667,0-4.6-1.981,3.962-4.614,6.674-5.191A39.87,39.87,0,0,1,21,109.173c-5.1-3.586-32.9,7.346-14.089,10.381C58.18,127.881,99.555,115.909,86.248,109.915ZM30.635,99.534c-19.761,5.518,11.916,16.692,37.075,5.932a47.6,47.6,0,0,1-7.415-3.708c-11.224,2.132-15.758,2.637-25.953,1.483C25.931,102.288,30.635,99.534,30.635,99.534ZM75.866,124c-19.761,3.712-44.141,3.124-58.579.742,0-.025,2.58,1.988,17.8,2.966,23.151,1.48,58.492-.187,59.32-11.123C94.4,116.588,93.393,120.693,75.866,124ZM64.744,88.411c-14.865,2.859-23.237,3.353-34.109,2.225-8.412-.878-2.966-5.191-2.966-5.191-21.795,7.223,11.808,15.577,42.266,6.674A12.2,12.2,0,0,1,64.744,88.411Z" transform="translate(870.088 347.812)" fill="#572aa1"/><path d="M0,32V160H128V32Zm69.657,99.829c0,12.457-7.314,18.143-17.971,18.143-9.629,0-15.2-4.971-18.057-11l9.8-5.914c1.886,3.343,3.6,6.171,7.743,6.171,3.943,0,6.457-1.543,6.457-7.571V90.771H69.657v41.057Zm28.457,18.143c-11.171,0-18.4-5.314-21.914-12.286l9.8-5.657c2.571,4.2,5.943,7.314,11.857,7.314,4.971,0,8.171-2.486,8.171-5.943,0-4.114-3.257-5.571-8.771-8l-3-1.286c-8.686-3.686-14.429-8.343-14.429-18.143,0-9.029,6.886-15.886,17.6-15.886,7.657,0,13.143,2.657,17.086,9.629l-9.371,6c-2.057-3.686-4.286-5.143-7.743-5.143-3.514,0-5.743,2.229-5.743,5.143,0,3.6,2.229,5.057,7.4,7.314l3,1.286c10.229,4.371,15.971,8.857,15.971,18.914,0,10.8-8.514,16.743-19.914,16.743Z" transform="translate(140 96.37)" fill="#572aa1"/><path d="M99.918,90.358H81.036V73.391H99.918Zm0-58.358H81.036V49.339H99.918Zm22.338,41.362H103.374V90.33h18.882Zm-44.647-20.6H58.727V69.934H77.609Zm22.309,0H81.036V69.934H99.918Zm79.068,28.565c-4.113-2.771-13.6-3.771-20.881-2.4-.943-6.856-4.77-12.826-11.74-18.2l-4-2.657-2.657,4c-5.256,7.941-6.684,21.024-1.057,29.651a28.731,28.731,0,0,1-13.825,3.056H.654c-2.485,14.511,1.657,33.364,12.569,46.3C23.821,153.63,39.7,160,60.47,160c44.961,0,78.24-20.71,93.808-58.33,6.113.114,19.31.029,26.08-12.911.428-.714,1.885-3.771,2.428-4.885Zm-146-7.97H14.137V90.33H33.019V73.362Zm22.309,0H36.418V90.33H55.3Zm22.309,0H58.727V90.33H77.609ZM55.3,52.767H36.418V69.934H55.3Z" transform="translate(813.043 96.76)" fill="#572aa1"/><path d="M80.481,112.754C80.4,112.914,80.321,113.047,80.481,112.754Zm66.448-23.2a35,35,0,0,0-15.465,3.6c-1.573-3.173-3.2-5.946-3.466-8.026a21.424,21.424,0,0,1-.293-6.746c.373-2.88,2.053-6.959,2.027-7.253s-.373-1.76-3.813-1.787-6.4.667-6.746,1.573a32.751,32.751,0,0,0-1.413,5.093c-.613,3.12-6.879,14.265-10.426,20.078a20.7,20.7,0,0,1-2.373-5.866,21.424,21.424,0,0,1-.293-6.746c.373-2.88,2.053-6.959,2.027-7.253s-.373-1.76-3.813-1.787-6.4.667-6.746,1.573-.72,3.04-1.413,5.093-9.039,20.612-11.226,25.438c-1.12,2.453-2.08,4.426-2.773,5.76-.107.213-.187.347-.24.453.08-.133.133-.267.133-.213-.587,1.147-.933,1.787-.933,1.787v.027c-.453.853-.96,1.627-1.2,1.627-.16,0-.507-2.24.08-5.306,1.253-6.453,4.213-16.479,4.186-16.825-.027-.187.56-1.92-1.947-2.853a3.139,3.139,0,0,0-3.52.587c-.213,0-.373.533-.373.533S79.6,80.81,71.735,80.81C66.829,80.81,60,86.2,56.643,91.076c-2.106,1.147-6.666,3.626-11.466,6.266-1.84,1.013-3.733,2.053-5.52,3.04-.133-.133-.24-.267-.373-.4C29.739,89.8,12.113,82.6,12.86,68.917c.267-4.986,2-18.079,33.891-33.971,26.131-13.012,47.036-9.439,50.636-1.493,5.173,11.332-11.172,32.424-38.317,35.464-10.346,1.147-15.785-2.853-17.145-4.346-1.413-1.573-1.627-1.653-2.16-1.36-.88.48-.32,1.867,0,2.693.8,2.106,4.133,5.84,9.813,7.706,4.986,1.627,17.119,2.533,31.784-3.146,16.479-6.346,29.3-24.025,25.545-38.824-3.84-15.039-28.771-19.972-52.369-11.6C40.484,25.028,25.286,32.867,14.353,43.08,1.367,55.239-.712,65.824.141,70.251,3.181,85.956,24.832,96.2,33.5,103.768c-.427.24-.827.453-1.2.667-4.346,2.16-20.852,10.8-24.985,19.918-4.666,10.346.773,17.759,4.346,18.772,11.146,3.093,22.558-2.48,28.691-11.626s5.386-21.092,2.56-26.531c-.027-.08-.08-.133-.107-.213,1.12-.667,2.266-1.333,3.413-2,2.213-1.307,4.373-2.506,6.266-3.546a41.417,41.417,0,0,0-2.24,11.359c-.48,5.866,1.947,13.466,5.093,16.452a5.6,5.6,0,0,0,4.106,1.333c3.68,0,5.333-3.04,7.173-6.666,2.266-4.426,4.266-9.573,4.266-9.573s-2.506,13.919,4.346,13.919c2.506,0,5.013-3.226,6.133-4.88v.027s.053-.107.187-.32c.267-.4.4-.64.4-.64v-.08c1.013-1.733,3.226-5.706,6.559-12.266,4.32-8.479,8.453-19.065,8.453-19.065a53.659,53.659,0,0,0,1.653,6.879,64.41,64.41,0,0,0,3.573,8c-1.013,1.387-1.627,2.187-1.627,2.187a.083.083,0,0,0,.027.053c-.8,1.067-1.707,2.213-2.64,3.333-3.413,4.053-7.466,8.693-8,10.026-.64,1.573-.48,2.746.747,3.653.907.693,2.506.8,4.186.667a18.491,18.491,0,0,0,6.266-1.44,21.932,21.932,0,0,0,5.386-2.826,12.038,12.038,0,0,0,5.173-10.612,22.083,22.083,0,0,0-1.947-7.519c.293-.427.613-.88.907-1.333a141.719,141.719,0,0,0,9.359-16.159,53.659,53.659,0,0,0,1.653,6.879,47.056,47.056,0,0,0,3.04,6.853c-4.96,4.026-8.026,8.693-9.093,11.759-1.973,5.68-.427,8.239,2.48,8.826a8.947,8.947,0,0,0,4.56-.933,21.162,21.162,0,0,0,5.76-2.96c3.333-2.453,6.559-5.893,6.346-10.559a19.837,19.837,0,0,0-1.44-6.239c4.186-1.76,9.626-2.72,16.559-1.92,14.852,1.733,17.759,11.012,17.2,14.879a9.79,9.79,0,0,1-4.72,6.666c-1.04.64-1.36.88-1.28,1.36.133.693.613.667,1.493.507,1.227-.213,7.786-3.146,8.079-10.319.427-9.066-8.293-19.038-23.731-18.958ZM32.458,128.139c-4.906,5.36-11.786,7.386-14.745,5.68-3.173-1.84-1.92-9.733,4.133-15.439a79.015,79.015,0,0,1,11.572-8.639c.72-.427,1.76-1.067,3.04-1.84.213-.133.32-.187.32-.187.24-.16.507-.293.773-.453a21.277,21.277,0,0,1-5.093,20.878ZM68.3,103.768c-1.707,4.186-5.306,14.852-7.493,14.292-1.867-.48-3.013-8.613-.373-16.612a36.776,36.776,0,0,1,5.84-10.692c2.693-3.013,5.653-3.973,6.346-2.773.933,1.573-3.253,13.172-4.32,15.785Zm29.6,14.132c-.72.373-1.387.613-1.707.427-.24-.133.293-.64.293-.64s3.706-3.973,5.173-5.786c.853-1.067,1.84-2.32,2.906-3.706,0,.133.027.267.027.427C104.559,113.394,99.973,116.62,97.893,117.9Zm22.825-5.2c-.533-.373-.453-1.627,1.333-5.52a20.766,20.766,0,0,1,5.066-6.533,9.646,9.646,0,0,1,.507,2.88c-.027,6-4.32,8.239-6.906,9.173Z" transform="translate(53.325 332.063)" fill="#572aa1"/></g></svg>