<svg xmlns="http://www.w3.org/2000/svg" xmlns:xlink="http://www.w3.org/1999/xlink" width="1080" height="1969" viewBox="0 0 1080 1969"><defs><clipPath id="a"><rect width="1080" height="1969" fill="none"/></clipPath></defs><g clip-path="url(#a)"><path d="M4413,1143.346s277.982,183.943,540,81.852,540,80.683,540,80.683V-112.957H4413Z" transform="translate(-4413 112.957)" fill="#ffa800"/><path d="M70.5,0,141,122H0Z" transform="matrix(0.978, -0.208, 0.208, 0.978, 56.244, 1398.579)" fill="#ffa800"/><path d="M47.5,0,95,82H0Z" transform="translate(903.975 1365.564) rotate(17)" fill="#ffa800" opacity="0.36"/><path d="M62.569,0l50.176,24.164,12.393,54.3L90.414,122H34.723L0,78.459l12.392-54.3Z" transform="translate(696.101 1514.786) rotate(-8)" fill="#ffa800"/><path d="M67.172,0l67.172,48.51L108.686,127H25.657L0,48.51Z" transform="translate(413.289 1462.783) rotate(-8)" fill="#ffa800" opacity="0.59"/><path d="M104.5,0,209,104.5,104.5,209,0,104.5Z" transform="translate(757.087 1724.071) rotate(-8)" fill="#ffa800" opacity="0.7"/><circle cx="113" cy="113" r="113" transform="translate(56 1730)" fill="#ffa800" opacity="0.48"/><circle cx="63" cy="63" r="63" transform="translate(570 1843)" fill="#ffa800" opacity="0.16"/></g></svg>